<?xml version="1.0" encoding="utf-8"?>
<!-- Generator: Adobe Illustrator 22.1.0, SVG Export Plug-In . SVG Version: 6.00 Build 0)  -->
<svg version="1.1" id="Layer_1" xmlns="http://www.w3.org/2000/svg" xmlns:xlink="http://www.w3.org/1999/xlink" x="0px" y="0px"
	 viewBox="0 0 1920 1080" style="enable-background:new 0 0 1920 1080;" xml:space="preserve">
<style type="text/css">
	.st0{fill:#FF6C0E;}
</style>
<g>
	<path class="st0" d="M213.1,652.2c6.8,6.8,10.2,14.8,10.2,24.2c0,9.3-3.4,17.4-10.2,24.2c-6.8,6.1-14.7,9.4-23.9,9.9
		c-9.2,0.5-17.3-2.8-24.5-9.9l-76.9-76.4v52c0,8.8-3.4,16.7-10.2,23.7c-6.8,7-14.8,10.5-23.9,10.5c-8.8,0-16.8-3.3-23.9-9.9
		c-7.1-6.6-10.7-14.7-10.7-24.2V418.9c0-8.8,3.4-16.7,10.2-23.7c6.8-7,14.9-10.4,24.5-10.4c9.5,0,17.6,3.3,24.2,9.9
		c6.7,6.6,9.9,14.7,9.9,24.2v127.9l76.9-76.9c6.8-6.8,14.7-10.1,23.9-9.9c9.2,0.2,17.3,3.5,24.4,9.9c6.8,6.8,10.2,14.9,10.2,24.2
		c0,9.3-3.4,17.4-10.2,24.2l-67.2,67.2L213.1,652.2z"/>
	<path class="st0" d="M352.2,464c16.7,0,32.4,3.2,47.4,9.7c14.9,6.5,28,15.3,39.2,26.5c11.2,11.2,20.1,24.3,26.7,39.2
		c6.6,14.9,9.9,31.1,9.9,48.4c0,17-3.2,32.9-9.7,47.6c-6.5,14.8-15.2,27.8-26.2,39c-11,11.2-24,20-38.9,26.5
		c-15,6.5-31.1,9.7-48.4,9.7c-17,0-32.9-3-47.9-9.2c-14.9-6.1-28-14.7-39.2-25.7c-11.2-11-20-24-26.5-39
		c-6.4-14.9-9.7-31.3-9.7-48.9c0-17,3.1-32.9,9.4-47.7c6.3-14.8,15-27.7,26-38.7c11.1-11,24.1-19.9,39.2-26.5
		C318.6,468.4,334.8,464.7,352.2,464z M352.2,530.8c-7.8,0-15.1,1.4-21.9,4.3c-6.8,2.9-12.8,6.9-18.1,12
		c-5.3,5.1-9.5,11.1-12.5,18.1c-3,7-4.6,14.5-4.6,22.7c0,7.8,1.5,15.2,4.6,22.1c3,7,7.2,13.1,12.5,18.4c5.2,5.2,11.3,9.4,18.1,12.5
		c6.8,3,14.1,4.6,21.9,4.6c7.8,0,15.2-1.5,22.2-4.6c6.9-3.1,13-7.2,18.1-12.5c5-5.3,9.1-11.4,12.2-18.4c3.1-7,4.6-14.3,4.6-22.1
		c-0.7-15.6-6.3-28.9-16.8-39.8C381.9,537.2,368.5,531.5,352.2,530.8z"/>
	<path class="st0" d="M595.1,464c10.2,0,20.1,1.6,29.8,4.8c9.7,3.2,18.6,8.3,26.7,15c16.3-13.3,35.3-19.9,57-19.9
		c11.9,0,23.4,2.3,34.4,6.9c11,4.6,20.7,10.8,29,18.6s14.9,17.2,19.9,28c4.9,10.9,7.4,22.4,7.4,34.6V680c0,8.1-3.4,15.3-10.2,21.4
		c-6.8,6.1-14.6,9.2-23.4,9.2c-8.9,0-16.6-3.3-23.2-10c-6.6-6.6-9.9-14.3-9.9-23.2V553.7c0-6.5-2.3-11.9-6.8-16.3
		c-4.6-4.4-10.3-6.6-17.1-6.6c-5.8,0-11.1,2-16,5.9c-5,3.9-7.4,9.6-7.4,17.1v123.8c0,9.2-3.3,17-9.9,23.4
		c-6.6,6.5-14.5,9.7-23.7,9.7c-8.5,0-16.1-3-22.9-8.9c-6.8-6-10.2-13.2-10.2-21.7V553.7c-0.3-6.8-2.9-12.3-7.6-16.6
		c-4.8-4.2-10-6.4-15.8-6.4c-6.4,0-12,2.2-16.5,6.6c-4.6,4.4-7.1,10-7.4,16.8v126.3c-0.7,8.2-4.1,15.2-10.4,21.2
		c-6.3,5.9-13.8,8.9-22.6,8.9c-4.8,0-9.2-0.8-13.3-2.6c-4-1.7-7.6-4.1-10.7-7.1c-3-3-5.5-6.6-7.4-10.7c-1.9-4.1-2.6-8.3-2.3-12.7
		V552.2c0-11.9,2.4-23.2,7.1-33.9c4.7-10.7,11.2-20.1,19.4-28c8.2-8,17.7-14.3,28.8-19.1C570.8,466.4,582.6,464,595.1,464z"/>
	<path class="st0" d="M966.5,464.5c15.3,1.7,29.6,6.1,43,13.3c13.4,7.2,25,16.2,34.7,27.3c9.7,11,17.3,23.6,22.9,37.7
		c5.6,14.1,8.4,29,8.4,44.6v90.2c0,9.2-3.4,17-10.2,23.4c-6.8,6.5-14.5,9.7-22.9,9.7c-11.9,0-21.4-5.4-28.6-16.3
		c-1.7,0.7-3.2,1.5-4.5,2.3c-1.4,0.9-2.7,1.6-4.1,2.3c-8.2,3.7-16.5,6.6-25,8.7c-8.8,2-18.2,3.1-28.1,3.1
		c-25.5,0-48.2-6.9-68.2-20.7c-20-13.7-35-31.5-44.8-53.2c-3.4-7.8-6-15.8-7.9-24c-1.9-8.1-2.8-16.6-2.8-25.5
		c0-8.8,0.9-17.3,2.8-25.5c1.9-8.2,4.5-16.1,7.9-23.9C849,515.8,864,498,884,484.4c20.1-13.6,42.8-20.4,68.2-20.4c2.7,0,5.2,0,7.4,0
		C961.9,464,964.2,464.2,966.5,464.5z M951.8,644.4c7.8,0,15.2-1.4,22.1-4.3c7-2.9,13-6.9,18.1-12c5.1-5.1,9.2-11.1,12.2-18.1
		c3.1-7,4.6-14.5,4.6-22.7c0-7.5-1.5-14.7-4.6-21.6c-3-7-7.2-13.1-12.4-18.4c-5.3-5.2-11.4-9.4-18.4-12.5c-7-3-14.2-4.6-21.6-4.6
		c-7.5,0-14.6,1.6-21.4,4.6c-6.8,3.1-12.8,7.2-18.1,12.5c-5.3,5.3-9.4,11.4-12.5,18.4c-3,7-4.6,14.2-4.6,21.6
		c0,7.8,1.6,15.2,4.8,22.2c3.2,6.9,7.5,13,12.7,18.1c5.3,5.1,11.3,9.2,18.1,12.2C937.6,642.9,944.6,644.4,951.8,644.4z"/>
	<path class="st0" d="M1297.6,473.6c6.5-6.4,14-9.6,22.7-9.4c8.7,0.2,16.4,3.5,23.2,9.9c6.1,6.1,9.1,13.8,9.1,22.9s-3,17-9.1,23.4
		l-66.2,66.7l66.2,66.7c6.1,6.1,9.3,13.8,9.7,23.2c0.3,9.3-2.9,17.4-9.7,24.2c-6.1,6.1-13.9,9.2-23.2,9.2c-9.3,0-17.4-3.6-24.2-10.7
		l-66.2-65.2l-66.2,66.7c-6.2,5.4-13.8,8.5-23,9.2c-9.2,0.7-17.2-2.4-23.9-9.2c-6.2-6.1-9.5-13.7-10-22.7c-0.5-9,2.5-16.9,8.9-23.7
		l67.8-67.8l-67.8-67.8c-6.4-6.4-9.3-13.9-8.6-22.4c0.7-8.5,3.9-16.1,9.7-22.9c7.4-7.5,15.4-10.8,23.9-10.2
		c8.5,0.7,16.1,4.1,23,10.2l66.2,66.2L1297.6,473.6z"/>
	<g>
		<path class="st0" d="M1537.8,241.9c38.9,2.6,78,101.1,87.4,240.9c9.3,139.8-36.2,262.3-52,315.7c-15.9,53.4-64.9,48.3-60.6,8.4
			c4.4-39.9,53.9-157.5,43.6-280.8C1545.9,402.9,1442.3,235.7,1537.8,241.9z"/>
		<path class="st0" d="M1794.2,330.9c0,0-151.9,123.1-152.5,264.5c-0.3,74.4,102.2,182.2,217.5,232.9c47.9,21,54.3-2.8-60.3-103.6
			c-105.7-93-93.7-150.8-30.4-230.4c58.1-73.1,156.7-157.9,122.4-191.2C1857.8,270.6,1794.2,330.9,1794.2,330.9z"/>
		<path class="st0" d="M1662.6,350.9c37,2.1,48.1,36.8,38,56.3c-10.1,19.5-62.4,40.6-71.5-12
			C1622.4,353.6,1662.6,350.9,1662.6,350.9z"/>
	</g>
</g>
</svg>
